<svg viewBox="-6.914893617021306 101.17500000000001 265.95744680851067 330.1499999999999" fill="none" xmlns="http://www.w3.org/2000/svg" xmlns:xlink="http://www.w3.org/1999/xlink" overflow="visible" width="265.95744680851067px" height="330.1499999999999px"><g id="Master/Pose/Sitting"><g id="Head/Front" transform="translate(38 73) scale(1 1)"><g id="Head/Front/Hijab 1"><g id="Head"><path id="SKIN" fill-rule="evenodd" clip-rule="evenodd" d="M73.9354 75.2443C80.411 79.1475 86.7736 81.0333 89.7603 80.2635C97.2496 78.333 97.9382 50.9351 92.1433 40.1339C86.3485 29.3328 56.5583 24.625 55.0568 46.0255C54.5356 53.4529 57.6544 60.0814 62.2623 65.4901L54 104H78L73.9354 75.2443Z" fill="#dcae92"/></g><g id="Hijab"><path id="Front" fill-rule="evenodd" clip-rule="evenodd" d="M86.735 33.0115C86.1853 32.6834 85.0351 31.9913 84.4525 31.7405C84.3146 31.6801 83.3492 30.9914 83.3232 31.0001C82.5922 31.2467 80.4756 32.1571 80.294 32.9439C80.2658 33.0035 80.2382 33.0594 80.2112 33.1083C79.9113 33.6535 79.6361 34.2123 79.3736 34.7779C78.7975 36.0194 78.3002 37.317 77.8253 38.6043C76.9002 41.1116 76.0965 43.6772 75.3576 46.2486C74.6054 48.8663 73.9669 51.5146 73.2522 54.1431C72.2237 57.9254 70.9074 61.6149 69.886 65.3957C69.2338 67.8098 68.871 70.2522 69.0423 72.7368C69.0439 72.7667 69.0449 72.7962 69.0476 72.8265C69.0487 72.839 69.0502 72.8512 69.0513 72.8637C69.0804 73.2456 69.122 73.6285 69.1773 74.0125C69.2257 74.3409 69.2743 74.6705 69.3261 75C70.2591 73.1396 70.9714 71.0897 71.7272 69.144C71.8012 68.9535 71.8717 68.7617 71.9406 68.5692C72.1844 68.1746 72.4329 67.7829 72.6842 67.3926C74.2689 64.9316 75.8599 62.4796 77.3795 59.9741C80.1128 55.4677 82.8206 50.8661 86.0611 46.7279C87.0179 45.5059 87.9971 44.3027 88.9419 43.0707C89.4796 42.3697 90.0033 41.6569 90.51 40.9314C90.8722 40.4126 92.4471 38.6043 91.8768 37.5179C91.585 36.9621 88.1611 33.8627 86.735 33.0115Z" fill="#2C2C2C"/><path id="Turban" fill-rule="evenodd" clip-rule="evenodd" d="M84.626 31.8312C85.1606 32.0109 84.9005 30.8984 84.3827 30.5069C81.9838 28.6933 72.8126 28.0352 64.8316 29.6919C59.4851 30.8018 53.267 33.5642 48.9966 37.1155C45.1469 40.317 42.4994 45.4492 41.1364 50.4077C39.7052 55.6143 39.4884 61.0423 40.2858 66.3814C40.4609 67.5542 40.8373 68.6718 41.0471 69.8197C41.2832 71.1123 41.4044 72.3569 41.8254 73.6146C42.0832 74.3845 42.5213 75.1393 42.7413 75.9137C42.9924 76.7973 42.8394 77.6147 42.6562 78.5134C42.3578 79.9782 41.9878 81.44 41.462 82.839C40.6723 84.9398 39.7141 86.9073 39.1133 89.0873C38.3139 91.9879 34.97 101.427 37.4137 104H83.9323C82.761 100.805 79.2448 97.0443 78.533 93.6239C78.1138 91.6089 77.9144 87.2086 77.8705 87.0487C76.8222 79.8224 74.7753 76.3715 73.4933 75.1191C72.2113 73.8668 70.5038 73.4817 70.4158 72.3953C70.0522 67.9024 71.8388 63.5974 73.1489 59.4042C74.7103 54.4066 75.8546 49.285 77.4643 44.3043C78.177 42.0987 81.8502 30.8984 84.626 31.8312Z" fill="#8991DC"/><path id="Shade" fill-rule="evenodd" clip-rule="evenodd" d="M66.5618 53.1421C66.1845 45.537 66.5618 42.566 68.316 37H67.2344C65.5245 39.2089 64.0938 45.9652 65.7013 53.1421H66.5618ZM45.3638 52.7838L45.3637 52.7836L45.3637 52.7834C45.175 52.3218 44.9819 51.8491 44.7821 51.3643L44.0945 51.6948C46.2641 59.6306 48.9031 65.7569 57.9652 70.8927L58.6701 70.3992C50.0996 64.3728 48.2618 59.8756 45.3638 52.7838ZM58.2134 43.2923C58.3042 43.9806 58.391 44.6509 58.4759 45.3055V45.3055C59.7785 55.3594 60.6045 61.735 67.8664 73.2976L67.0435 73.5492C59.0831 62.8261 57.8213 54.0741 57.4452 43.3541L58.2134 43.2923ZM50.3735 75.8804L49.6694 76.7363C53.1961 77.4744 55.594 80.0682 58.3429 83.0416C61.2514 86.1877 64.5528 89.7588 70 92.0068L71.0112 91.3941C65.0658 88.3027 62.2999 85.2305 59.8848 82.5479C57.3846 79.7707 55.2604 77.4111 50.3735 75.8804Z" fill="black" fill-opacity="0.2"/></g></g></g><g id="Lower Body/Sitting" transform="translate(-44 260) scale(1 1)"><g id="Lower Body/Sitting/Skinny Jeans 1"><g id="Seat"><g id="Seat_2"><path id="Seat Stuff" fill-rule="evenodd" clip-rule="evenodd" d="M92.6226 42H169.877L180 166H65L92.6226 42Z" fill="#C5CFD6"/><path id="Seat Stuff_2" fill-rule="evenodd" clip-rule="evenodd" d="M92.6226 42H116.383L130.604 166H65L92.6226 42Z" fill="black" fill-opacity="0.1"/></g></g><path id="LegBack" fill-rule="evenodd" clip-rule="evenodd" d="M212.323 66.5665C203.642 84.9781 190.077 129.672 190.077 129.672L201.593 134.934C201.593 134.934 230.814 87.9524 248.672 55.8364C247.84 63.0664 246.993 71.2061 246.208 79.7626C244.347 100.033 246.207 143.827 247.208 156.477C247.837 164.428 258.64 162.762 259.648 156.457C259.819 155.389 260.515 151.639 261.554 146.045C266.647 118.613 279.977 46.8178 280 29.2384C280.01 22.1647 266.19 15.8101 257.953 20.7561C252.296 14.7192 241.588 11.2397 235.436 21.212C231.525 27.5517 222.233 45.5497 212.323 66.5665Z" fill="#dcae92"/><path id="LegLower" fill-rule="evenodd" clip-rule="evenodd" d="M190.9 113.125L230.427 19.4873C239.897 4.25483 266.446 22.587 263.217 31.4217C255.885 51.4793 218.6 116.414 216.415 122.39L190.9 113.125Z" fill="#56919c"/><path id="shoe" fill-rule="evenodd" clip-rule="evenodd" d="M191.664 124.185C190.971 123.241 189.63 123.017 188.734 123.771C187.099 125.146 184.748 127.264 183.899 128.734C182.547 131.076 180.733 136.021 180.733 136.021C183.45 137.59 229.578 164.222 229.578 164.222C229.578 164.222 235.116 159.027 231.304 156.157C227.491 153.286 225.012 151.315 225.012 151.315L208.152 128.087C207.821 127.631 207.179 127.538 206.733 127.882L203.23 130.579C203.23 130.579 198.409 130.159 196.035 128.788C194.589 127.953 192.824 125.767 191.664 124.185Z" fill="#E4E4E4"/><path id="shoe_2" fill-rule="evenodd" clip-rule="evenodd" d="M247.45 150.284C246.378 149.813 245.104 150.29 244.705 151.391C243.977 153.398 243 156.409 243 158.106C243 160.811 243.901 166 243.901 166C247.039 166 300.303 166 300.303 166C300.303 166 302.502 158.732 297.765 158.152C293.028 157.573 289.895 157.106 289.895 157.106L263.68 145.419C263.165 145.189 262.563 145.43 262.348 145.951L260.663 150.039C260.663 150.039 256.278 152.085 253.537 152.085C251.868 152.085 249.246 151.074 247.45 150.284Z" fill="#E4E4E4"/><path id="Leg and Butt" fill-rule="evenodd" clip-rule="evenodd" d="M282.77 36.433C282.77 63 270.154 124.97 270.146 130.82L243 130.841C243 130.841 248.96 47.8977 247.227 47.0042C245.493 46.1107 176.176 53.925 155.386 53.925C125.408 53.925 113.006 35.0204 112 0H171.386C183.478 1.29387 246.549 14.0153 269.972 18.3884C280 20.2606 282.77 29.1145 282.77 36.433Z" fill="#89c5cc"/></g></g><g id="Upper Body" transform="translate(-22 155) scale(1 1)"><g id="Upper Body/Long Sleeve"><path id="SKIN" fill-rule="evenodd" clip-rule="evenodd" d="M231.483 59.9252L192 65.3108L199.084 83L231.121 70.2987C244.93 71.6611 251.607 71.3331 251.153 69.3149C250.77 67.6131 249.302 67.0993 247.95 66.6261C246.897 66.2574 245.914 65.9134 245.569 65.0515C244.78 63.0832 249.269 59.0033 253.693 55.3152C258.117 51.6271 255.148 50.9484 253.281 51.0029C246.647 52.5579 239.381 55.532 231.483 59.9252ZM39.398 156.908C42.3285 150.963 67.9699 74.4497 67.9699 74.4497L89.8673 74.5319C89.8673 74.5319 53.8506 155.583 52.308 159.406C50.3041 164.372 53.708 171.587 56.0162 176.48C56.3733 177.237 56.7041 177.938 56.9847 178.567C53.782 180 52.2435 178.268 50.6216 176.442C48.7896 174.379 46.8512 172.197 42.288 174.319C40.525 175.14 38.8568 176.109 37.2269 177.057C31.5969 180.329 26.4249 183.336 19.3891 178.994C18.2737 178.306 17.0514 175.715 20.0047 173.69C27.3624 168.645 37.9654 159.815 39.398 156.908Z" fill="#cccccc"/><path id="Clothes Back" fill-rule="evenodd" clip-rule="evenodd" d="M127.949 5.00001L145.094 6.14217C149.317 44.3434 172.316 68.4728 223.811 60.304L230.652 109.499C182.523 115.719 140.313 96.4498 131.662 44.2785C129.423 30.7729 127.655 16.7178 127.949 5.00001Z" fill="#e87613"/><path id="Clothes" fill-rule="evenodd" clip-rule="evenodd" d="M42.4016 147C54.3053 83.664 79.4301 34.664 117.776 0H119.421H119.477L119.491 0.0159384L145.468 5.96528C145.468 37.1692 152.41 60.4845 159.084 82.9002C161.966 92.5803 164.798 102.093 167 112H96.8436C95.8554 123.351 95.2485 135.018 94.9322 147H42.4016Z" fill="#ffa434"/><path id="Shade" fill-rule="evenodd" clip-rule="evenodd" d="M96.8438 112C98.8558 88.8905 102.449 67.0899 108.388 46.5981C107.086 68.5123 106.725 95.6979 111.103 112H96.8438Z" fill="black" fill-opacity="0.1"/></g></g></g></svg>