<svg viewBox="-1.5957446808510838 26.625 313.8297872340426 404.6999999999999" fill="none" xmlns="http://www.w3.org/2000/svg" xmlns:xlink="http://www.w3.org/1999/xlink" overflow="visible" width="313.8297872340426px" height="404.6999999999999px"><g id="Master/Pose/Standing"><g id="Head/Front" transform="translate(82 0) scale(1 1)"><g id="Head/Front/Hijab 1"><g id="Head"><path id="SKIN" fill-rule="evenodd" clip-rule="evenodd" d="M73.9354 75.2443C80.411 79.1475 86.7736 81.0333 89.7603 80.2635C97.2496 78.333 97.9382 50.9351 92.1433 40.1339C86.3485 29.3328 56.5583 24.625 55.0568 46.0255C54.5356 53.4529 57.6544 60.0814 62.2623 65.4901L54 104H78L73.9354 75.2443Z" fill="#dcae92"/></g><g id="Hijab"><path id="Front" fill-rule="evenodd" clip-rule="evenodd" d="M86.735 33.0115C86.1853 32.6834 85.0351 31.9913 84.4525 31.7405C84.3146 31.6801 83.3492 30.9914 83.3232 31.0001C82.5922 31.2467 80.4756 32.1571 80.294 32.9439C80.2658 33.0035 80.2382 33.0594 80.2112 33.1083C79.9113 33.6535 79.6361 34.2123 79.3736 34.7779C78.7975 36.0194 78.3002 37.317 77.8253 38.6043C76.9002 41.1116 76.0965 43.6772 75.3576 46.2486C74.6054 48.8663 73.9669 51.5146 73.2522 54.1431C72.2237 57.9254 70.9074 61.6149 69.886 65.3957C69.2338 67.8098 68.871 70.2522 69.0423 72.7368C69.0439 72.7667 69.0449 72.7962 69.0476 72.8265C69.0487 72.839 69.0502 72.8512 69.0513 72.8637C69.0804 73.2456 69.122 73.6285 69.1773 74.0125C69.2257 74.3409 69.2743 74.6705 69.3261 75C70.2591 73.1396 70.9714 71.0897 71.7272 69.144C71.8012 68.9535 71.8717 68.7617 71.9406 68.5692C72.1844 68.1746 72.4329 67.7829 72.6842 67.3926C74.2689 64.9316 75.8599 62.4796 77.3795 59.9741C80.1128 55.4677 82.8206 50.8661 86.0611 46.7279C87.0179 45.5059 87.9971 44.3027 88.9419 43.0707C89.4796 42.3697 90.0033 41.6569 90.51 40.9314C90.8722 40.4126 92.4471 38.6043 91.8768 37.5179C91.585 36.9621 88.1611 33.8627 86.735 33.0115Z" fill="#2C2C2C"/><path id="Turban" fill-rule="evenodd" clip-rule="evenodd" d="M84.626 31.8312C85.1606 32.0109 84.9005 30.8984 84.3827 30.5069C81.9838 28.6933 72.8126 28.0352 64.8316 29.6919C59.4851 30.8018 53.267 33.5642 48.9966 37.1155C45.1469 40.317 42.4994 45.4492 41.1364 50.4077C39.7052 55.6143 39.4884 61.0423 40.2858 66.3814C40.4609 67.5542 40.8373 68.6718 41.0471 69.8197C41.2832 71.1123 41.4044 72.3569 41.8254 73.6146C42.0832 74.3845 42.5213 75.1393 42.7413 75.9137C42.9924 76.7973 42.8394 77.6147 42.6562 78.5134C42.3578 79.9782 41.9878 81.44 41.462 82.839C40.6723 84.9398 39.7141 86.9073 39.1133 89.0873C38.3139 91.9879 34.97 101.427 37.4137 104H83.9323C82.761 100.805 79.2448 97.0443 78.533 93.6239C78.1138 91.6089 77.9144 87.2086 77.8705 87.0487C76.8222 79.8224 74.7753 76.3715 73.4933 75.1191C72.2113 73.8668 70.5038 73.4817 70.4158 72.3953C70.0522 67.9024 71.8388 63.5974 73.1489 59.4042C74.7103 54.4066 75.8546 49.285 77.4643 44.3043C78.177 42.0987 81.8502 30.8984 84.626 31.8312Z" fill="#8991DC"/><path id="Shade" fill-rule="evenodd" clip-rule="evenodd" d="M66.5618 53.1421C66.1845 45.537 66.5618 42.566 68.316 37H67.2344C65.5245 39.2089 64.0938 45.9652 65.7013 53.1421H66.5618ZM45.3638 52.7838L45.3637 52.7836L45.3637 52.7834C45.175 52.3218 44.9819 51.8491 44.7821 51.3643L44.0945 51.6948C46.2641 59.6306 48.9031 65.7569 57.9652 70.8927L58.6701 70.3992C50.0996 64.3728 48.2618 59.8756 45.3638 52.7838ZM58.2134 43.2923C58.3042 43.9806 58.391 44.6509 58.4759 45.3055V45.3055C59.7785 55.3594 60.6045 61.735 67.8664 73.2976L67.0435 73.5492C59.0831 62.8261 57.8213 54.0741 57.4452 43.3541L58.2134 43.2923ZM50.3735 75.8804L49.6694 76.7363C53.1961 77.4744 55.594 80.0682 58.3429 83.0416C61.2514 86.1877 64.5528 89.7588 70 92.0068L71.0112 91.3941C65.0658 88.3027 62.2999 85.2305 59.8848 82.5479C57.3846 79.7707 55.2604 77.4111 50.3735 75.8804Z" fill="black" fill-opacity="0.2"/></g></g></g><g id="Lower Body/Standing" transform="translate(0 187) scale(1 1)"><g id="Lower Body/Standing/Jogging"><path id="SKIN" fill-rule="evenodd" clip-rule="evenodd" d="M130 0L204.306 124.227L260.015 229.25H272.014L178.674 0L130 0Z" fill="#cccccc"/><g id="Right [shoe]"><path id="shoe" fill-rule="evenodd" clip-rule="evenodd" d="M255.45 223.284C254.378 222.813 253.104 223.29 252.705 224.391C251.977 226.398 251 229.409 251 231.106C251 233.811 251.901 239 251.901 239C255.039 239 308.303 239 308.303 239C308.303 239 310.502 231.732 305.765 231.152C301.028 230.573 297.895 230.106 297.895 230.106L271.68 218.419C271.165 218.189 270.563 218.43 270.348 218.951L268.663 223.039C268.663 223.039 264.278 225.085 261.537 225.085C259.868 225.085 257.246 224.074 255.45 223.284Z" fill="#E4E4E4"/></g><path id="Pant" fill-rule="evenodd" clip-rule="evenodd" d="M244.543 212.433L267.683 205.433C267.683 205.433 252.476 159.971 230.405 105.374C208.335 50.7778 183 0 183 0H117.644C117.644 0 145.811 64.2315 177.366 116.725C208.921 169.219 244.543 212.433 244.543 212.433Z" fill="#56919c"/><path id="SKIN" fill-rule="evenodd" clip-rule="evenodd" d="M125.117 0C118.104 43.6542 104.577 99.4275 103.301 101.149C102.45 102.296 71.8127 112.562 11.3899 131.947L13.9818 142.528C86.0359 132.132 124.002 124.066 127.881 118.331C133.699 109.728 162.749 41.7631 174 0H125.117Z" fill="#dcae92"/><path id="Pant" fill-rule="evenodd" clip-rule="evenodd" d="M32.6294 122.8L37.1948 139.842C91.087 144.569 124.108 141.153 136.258 129.596C148.407 118.039 162.254 74.84 177.799 0H115.478C105.629 61.2839 100.123 93.2121 98.96 95.7848C97.7966 98.3574 75.6864 107.363 32.6294 122.8Z" fill="#89c5cc"/><g id="Left [shoe]"><path id="shoe_2" fill-rule="evenodd" clip-rule="evenodd" d="M15.9311 130.074C16.2095 128.937 15.5182 127.765 14.3648 127.563C12.2611 127.195 9.12692 126.756 7.45574 127.05C4.7919 127.52 -0.162158 129.309 -0.162158 129.309C0.382733 132.399 9.63191 184.854 9.63191 184.854C9.63191 184.854 17.1715 185.757 16.9197 180.991C16.6679 176.226 16.5838 173.059 16.5838 173.059L23.5408 145.213C23.6774 144.667 23.3357 144.115 22.7854 143.994L18.4673 143.044C18.4673 143.044 15.691 139.081 15.215 136.381C14.9252 134.738 15.4647 131.98 15.9311 130.074Z" fill="#E4E4E4"/></g></g></g><g id="Upper Body" transform="translate(22 82) scale(1 1)"><g id="Upper Body/Jacket"><path id="SKIN" fill-rule="evenodd" clip-rule="evenodd" d="M222.372 116.758L194.044 89.1225L184.636 105.402L214.093 122.77C221.479 134.405 225.817 139.432 227.107 137.852C228.195 136.519 227.696 135.058 227.237 133.713C226.879 132.665 226.546 131.687 227.004 130.894C228.051 129.082 233.965 130.119 239.535 131.344C245.106 132.568 243.817 129.832 242.633 128.404C237.368 124.155 230.615 120.273 222.372 116.758ZM55.398 156.908C58.3285 150.963 68.308 93.0199 68.308 93.0199L89.2054 93.1021C89.2054 93.1021 69.8506 155.583 68.308 159.406C66.3041 164.372 69.708 171.587 72.0162 176.48C72.3733 177.237 72.7041 177.938 72.9847 178.567C69.782 180 68.2435 178.268 66.6216 176.442C64.7896 174.379 62.8512 172.197 58.288 174.319C56.525 175.14 54.8568 176.109 53.2269 177.057C47.5969 180.329 42.4249 183.336 35.3891 178.994C34.2737 178.306 33.0514 175.715 36.0047 173.69C43.3624 168.645 53.9654 159.815 55.398 156.908Z" fill="#dcae92"/><path id="Coat Back" fill-rule="evenodd" clip-rule="evenodd" d="M127.695 5.33202L136.342 3.84886C151.23 41.0391 177.222 74.8311 214.318 105.225L186.286 139.281C149.194 96.0046 126.33 51.3548 127.695 5.33202Z" fill="#e87613"/><path id="Shirt" fill-rule="evenodd" clip-rule="evenodd" d="M90 114H167C167 114 140.241 48.9377 140.241 3.46073L117.014 0C98.7599 29.3584 93.6048 65.5046 90 114Z" fill="#C7D1D9"/><path id="Coat Front" fill-rule="evenodd" clip-rule="evenodd" d="M55 147C63.4209 51.9959 116.504 0 116.504 0L116.522 0.0164189C116.525 0.010945 116.529 0.00547202 116.532 0H118.048C120.769 0.0937097 126.338 0.337673 126.338 0.337673L131.95 16.3769C132.841 45.7102 142.351 134.606 142.351 134.606H91.9499C92.0356 138.682 92.2255 142.815 92.5306 147H55Z" fill="#ffa434"/><path id="Shade" fill-rule="evenodd" clip-rule="evenodd" d="M91.9584 135C91.5561 117.25 93.1308 100.584 95.7576 85.5019C97.1315 103.399 100.003 124.933 106 135H91.9584Z" fill="black" fill-opacity="0.1"/><path id="Light" fill-rule="evenodd" clip-rule="evenodd" d="M103.111 104L128 92.4293V104H103.111Z" fill="white" fill-opacity="0.2"/></g></g></g></svg>