<svg viewBox="19.375 79.16666666666663 1530.625 888.2113821138212" fill="none" xmlns="http://www.w3.org/2000/svg" xmlns:xlink="http://www.w3.org/1999/xlink" overflow="visible" width="1530.625px" height="888.2113821138212px"><g id="Master/Backgrounds/Abstract"><g id="Group 14"><path id="Fill 3" fill-rule="evenodd" clip-rule="evenodd" d="M218 861.049C218 842.061 467.297 826.668 774.819 826.668C1082.34 826.668 1331.64 842.061 1331.64 861.049C1331.64 872.044 1248.04 881.833 1117.96 888.127C1129.39 892.683 1135.71 897.691 1135.71 902.946C1135.71 924.004 1034.28 941.074 909.155 941.074C806.07 941.074 719.066 915.195 691.617 906.078C685.595 904.078 679.085 903.478 672.722 904.36C643.368 908.428 554.006 919.879 478.147 919.879C353.026 919.879 251.595 902.809 251.595 881.751C251.595 878.978 253.371 876.275 256.713 873.669C231.729 869.762 218 865.504 218 861.049" fill="#a0efed"/><path id="Fill 6" fill-rule="evenodd" clip-rule="evenodd" d="M1155.24 911.871C1155.24 916.665 1172.25 920.551 1193.24 920.551C1214.22 920.551 1231.23 916.665 1231.23 911.871C1231.23 907.077 1214.22 903.191 1193.24 903.191C1172.25 903.191 1155.24 907.077 1155.24 911.871" fill="#a0efed"/><path id="Fill 8" fill-rule="evenodd" clip-rule="evenodd" d="M559.781 945.143C559.781 949.937 576.792 953.823 597.777 953.823C618.761 953.823 635.773 949.937 635.773 945.143C635.773 940.349 618.761 936.463 597.777 936.463C576.792 936.463 559.781 940.349 559.781 945.143" fill="#a0efed"/><path id="Fill 10" fill-rule="evenodd" clip-rule="evenodd" d="M1279.84 898.85C1279.84 901.247 1287.57 903.191 1297.12 903.191C1306.67 903.191 1314.4 901.247 1314.4 898.85C1314.4 896.454 1306.67 894.51 1297.12 894.51C1287.57 894.51 1279.84 896.454 1279.84 898.85" fill="#a0efed"/></g><g id="Group 34"><path id="Fill 1" fill-rule="evenodd" clip-rule="evenodd" d="M231.303 169.946C217.525 173.98 203.086 166.081 199.054 152.304C195.021 138.526 202.919 124.088 216.697 120.054C230.474 116.02 244.912 123.919 248.946 137.697C252.979 151.474 245.08 165.913 231.303 169.946" fill="#faba44"/><path id="Fill 3_2" fill-rule="evenodd" clip-rule="evenodd" d="M1404 271C1404 284.807 1392.81 296 1379 296C1365.19 296 1354 284.807 1354 271C1354 257.192 1365.19 246 1379 246C1392.81 246 1404 257.192 1404 271" fill="#faba44"/><path id="Stroke 5" fill-rule="evenodd" clip-rule="evenodd" d="M104.5 97.5C104.5 87.0068 113.006 78.5 123.5 78.5C133.993 78.5 142.5 87.0067 142.5 97.5C142.5 107.993 133.993 116.5 123.5 116.5C113.006 116.5 104.5 107.993 104.5 97.5ZM139.5 97.5C139.5 88.6635 132.337 81.5 123.5 81.5C114.663 81.5 107.5 88.6636 107.5 97.5C107.5 106.336 114.663 113.5 123.5 113.5C132.337 113.5 139.5 106.336 139.5 97.5Z" fill="#faba44"/><path id="Stroke 7" fill-rule="evenodd" clip-rule="evenodd" d="M50.7046 309.4C31.4303 304.543 19.7422 284.98 24.5992 265.705C29.4562 246.43 49.019 234.742 68.2944 239.599C87.5697 244.456 99.2578 264.019 94.4008 283.295C89.5437 302.57 69.9796 314.258 50.7046 309.4ZM91.4917 282.562C95.9439 264.893 85.23 246.961 67.5614 242.508C49.8926 238.056 31.9604 248.77 27.5083 266.439C23.0561 284.107 33.77 302.039 51.4378 306.491C69.1061 310.944 87.0395 300.231 91.4917 282.562Z" fill="#b39fe0"/><path id="Fill 9" fill-rule="evenodd" clip-rule="evenodd" d="M278.679 285.065C277.263 290.687 271.557 294.096 265.935 292.679C260.314 291.263 256.904 285.557 258.32 279.935C259.737 274.314 265.443 270.904 271.065 272.32C276.687 273.737 280.096 279.443 278.679 285.065" fill="#a0efed"/><path id="Fill 11" fill-rule="evenodd" clip-rule="evenodd" d="M636 97.4995C636 103.299 631.298 108 625.5 108C619.701 108 615 103.299 615 97.4995C615 91.7002 619.701 87 625.5 87C631.298 87 636 91.7002 636 97.4995" fill="#faba44"/><path id="Fill 13" fill-rule="evenodd" clip-rule="evenodd" d="M696 132.5C696 135.537 693.537 138 690.5 138C687.462 138 685 135.537 685 132.5C685 129.463 687.462 127 690.5 127C693.537 127 696 129.463 696 132.5" fill="#b39fe0"/><path id="Stroke 15" fill-rule="evenodd" clip-rule="evenodd" d="M1467.5 642.5C1467.5 632.559 1475.56 624.5 1485.5 624.5C1495.44 624.5 1503.5 632.559 1503.5 642.5C1503.5 652.441 1495.44 660.5 1485.5 660.5C1475.56 660.5 1467.5 652.441 1467.5 642.5ZM1500.5 642.5C1500.5 634.216 1493.78 627.5 1485.5 627.5C1477.22 627.5 1470.5 634.216 1470.5 642.5C1470.5 650.784 1477.22 657.5 1485.5 657.5C1493.78 657.5 1500.5 650.784 1500.5 642.5Z" fill="#faba44"/><path id="Fill 17" fill-rule="evenodd" clip-rule="evenodd" d="M1087 573C1087 568.582 1083.42 565 1079 565C1074.58 565 1071 568.582 1071 573C1071 577.418 1074.58 581 1079 581C1083.42 581 1087 577.418 1087 573" fill="#faba44"/><path id="Fill 19" fill-rule="evenodd" clip-rule="evenodd" d="M1550 518.5C1550 512.149 1544.85 507 1538.5 507C1532.15 507 1527 512.149 1527 518.5C1527 524.851 1532.15 530 1538.5 530C1544.85 530 1550 524.851 1550 518.5" fill="#a0efed"/><path id="Fill 21" fill-rule="evenodd" clip-rule="evenodd" d="M1508 764.216C1508 767.41 1505.41 770 1502.21 770C1499.02 770 1496.43 767.41 1496.43 764.216C1496.43 761.022 1499.02 758.432 1502.21 758.432C1505.41 758.432 1508 761.022 1508 764.216" fill="#b39fe0"/><path id="Fill 24" fill-rule="evenodd" clip-rule="evenodd" d="M1468 123.5C1468 132.06 1461.06 139 1452.5 139C1443.94 139 1437 132.06 1437 123.5C1437 114.94 1443.94 108 1452.5 108C1461.06 108 1468 114.94 1468 123.5" fill="#a0efed"/><path id="Fill 30" fill-rule="evenodd" clip-rule="evenodd" d="M174.854 217.372C166.64 219.776 158.032 215.067 155.628 206.854C153.224 198.64 157.932 190.034 166.146 187.628C174.36 185.224 182.967 189.933 185.372 198.146C187.776 206.36 183.067 214.967 174.854 217.372" fill="#faba44"/></g></g></svg>