<svg viewBox="30 90 2250 1470" fill="none" xmlns="http://www.w3.org/2000/svg" xmlns:xlink="http://www.w3.org/1999/xlink" overflow="visible" width="2250px" height="1470px"><g id="Master/Backgrounds/Garden"><g id="Big Plants" transform="translate(1336 153) scale(1 1)"><g id="Big Plants/4"><g id="Plant"><path id="Assets 14" d="M649.891 1359.3C649.891 1359.3 671.593 1317.25 628.087 1250.96C535.969 1110.59 684.943 1178.29 717.898 1082.43C744.769 1004.27 700.032 925.294 744.955 904.37C818.491 870.122 895.147 819.634 845.91 762.509C811.362 722.426 692.352 726.041 645.687 849.391C616.486 926.579 501.421 875.087 399.331 997.37C368.926 1033.79 302.157 1187.91 337.194 1359.3H649.891Z" fill="#15131b"/><g id="Assets 15"><path id="Fill-4" d="M527.902 1359.3C527.902 1359.3 577.601 1297.7 553.496 1230.16C534.053 1175.67 481.882 1160.77 480.133 1114.87C477.929 1057 535.994 1064.96 545.182 993.499C552.32 937.97 518.356 886.901 520.591 857.368C523.973 812.687 600.34 789.5 626.561 722.308C659.807 637.117 556.304 617.657 510.202 646.466C452.333 682.63 450.377 736.586 425.009 769.06C396.199 805.942 306.014 814.223 293.066 905.158C284.855 962.831 318.535 1012.94 302.662 1061.77C290.87 1098.04 220.477 1114.05 205.661 1194.2C189.715 1280.47 254.03 1359.3 254.03 1359.3H527.902Z" fill="#97ccd2"/><path id="Fill-6" d="M383.786 1359.3H377.713C375.533 1345.22 356.426 1212.15 384.656 1053.67C408.968 917.18 482.648 789.584 543.494 715.685C544.547 714.406 546.436 714.223 547.717 715.276C548.996 716.329 549.179 718.22 548.126 719.5C514.805 759.968 481.808 811.733 455.213 865.259C423.698 928.684 401.344 994.199 390.563 1054.72C361.594 1217.35 382.763 1352.97 383.786 1359.3" fill="#070709"/></g></g></g></g><g id="Big Plants" transform="matrix(-1 0 0 1 1226 153) scale(1 1)"><g id="Big Plants/5"><g id="Plant 2"><path id="Fill 1" fill-rule="evenodd" clip-rule="evenodd" d="M370.958 1338.61C447.375 1283.59 437.563 1299.53 532.641 1300.74C627.723 1301.93 609.383 1202.59 587.983 1176.6C566.587 1150.62 577.287 1100.19 638.423 1113.94C699.555 1127.7 765.276 1126.17 740.821 1052.81C716.37 979.446 763.084 971.006 806.542 901.503C850 832 831.206 792.64 793 785C754.789 777.359 716.37 818.971 684.27 817.441C652.179 815.916 636.894 759.538 598.687 766.327C560.477 773.116 560.164 796.046 532.806 857.182C505.455 918.314 474.885 913.729 436.675 899.973C398.468 886.218 361.788 904.558 341.918 958.05C322.047 1011.55 200.215 1228.36 242.793 1317.88C242.793 1317.88 294.541 1393.64 370.958 1338.61Z" fill="#15131b"/><path id="Stroke 4" d="M704.541 876.405C705.389 877.756 705.028 879.523 703.747 880.439L703.519 880.588L702.228 881.408C701.344 881.973 700.336 882.622 699.206 883.355L698.207 884.003C693.797 886.873 688.679 890.268 682.911 894.172L680.424 895.86C665.001 906.354 647.982 918.413 629.742 931.931L628.26 933.03C571.714 975.03 515.168 1022.24 462.402 1073.58C366.212 1167.17 293.619 1263.74 254.182 1360.51C253.557 1362.05 251.806 1362.78 250.272 1362.16C248.737 1361.53 248 1359.78 248.626 1358.25C288.422 1260.59 361.486 1163.4 458.217 1069.28C511.19 1017.74 567.936 970.362 624.683 928.213L627.651 926.013C645.892 912.525 662.9 900.501 678.302 890.048L682.113 887.472C686.034 884.832 689.633 882.442 692.889 880.31L695.943 878.319C696.758 877.791 697.511 877.305 698.201 876.862L700.405 875.459C701.808 874.578 703.66 875.001 704.541 876.405Z" fill="#ffffff"/><path id="Fill 6" fill-rule="evenodd" clip-rule="evenodd" d="M298.999 1257.12C298.999 1257.12 401.397 1029.57 500.743 875.882C600.09 722.193 587.86 563.244 464.063 547.959C340.265 532.679 233.282 806.251 298.999 1257.12" fill="#9584ba"/><path id="Stroke 9" d="M436.136 650.784C437.537 651.546 438.088 653.264 437.419 654.69L437.267 654.981L436.356 656.695L435.324 658.669C434.463 660.33 433.514 662.188 432.482 664.239L431.531 666.137C427.046 675.125 422.064 685.607 416.703 697.503L416.147 698.738C400.219 734.203 384.288 774.635 369.417 819.32C348.733 881.476 331.808 946.826 319.955 1014.49C305.837 1095.08 299.414 1176.22 301.998 1257.03C302.051 1258.69 300.751 1260.07 299.095 1260.12C297.439 1260.18 296.054 1258.88 296.001 1257.22C293.404 1175.98 299.859 1094.43 314.045 1013.45C325.951 945.486 342.95 879.851 363.724 817.426C378.412 773.29 394.133 733.278 409.874 698.066L410.674 696.28C415.719 685.046 420.442 675.037 424.744 666.317L426.162 663.458C427.473 660.831 428.667 658.482 429.735 656.416L430.512 654.919C430.827 654.316 431.113 653.772 431.37 653.288L432.067 651.984C432.859 650.529 434.681 649.991 436.136 650.784Z" fill="#15131b"/></g></g></g><g id="Plant" transform="translate(1496 663.5) scale(1 1)"><g id="Plant/Plant 3"><g id="Group"><g id="leaf 2"><path id="Fill 1" fill-rule="evenodd" clip-rule="evenodd" d="M505.12 260.152C548.559 251.653 628.827 258.263 641.103 271.484C654.855 286.294 620.352 368.048 603.797 374.671C578.962 374.671 537.572 369.704 544.194 382.949C550.816 396.194 572.34 412.75 572.34 421.028C572.34 429.306 557.439 482.286 539.227 485.596C521.016 488.908 476.314 474.007 474.658 485.596C473.003 497.186 497.837 512.087 499.493 525.332C501.148 538.577 476.314 575 370.354 606.457H279.296C279.296 606.457 262.74 492.219 302.474 444.207C333.932 455.796 347.177 457.451 347.177 457.451C347.177 457.451 343.865 392.882 355.454 364.737C367.044 336.591 382.69 312.203 403.132 312.09C418.45 312.006 451.281 341.622 457.903 330.032C464.525 318.443 449.852 270.965 505.12 260.152" fill="#ffffff"/><path id="Stroke 3" fill-rule="evenodd" clip-rule="evenodd" d="M460.208 294.753C465.319 275.719 478.426 263.141 503.735 258.189C547.895 249.549 628.688 256.252 641.568 270.123C648.497 277.586 645.253 299.105 635.296 325.264L634.679 326.871C624.934 351.967 612.139 373.087 603.539 376.528C603.303 376.622 603.051 376.671 602.796 376.671C599.631 376.671 596.86 376.617 592.079 376.46L580.742 376.056C567.224 375.591 559.362 375.627 553.305 376.43L552.685 376.516C545.604 377.537 543.553 379.196 544.982 382.054C546.605 385.3 549.274 388.975 553.187 393.54C554.51 395.083 555.927 396.677 557.789 398.729L561.963 403.314L563.717 405.267C565.547 407.325 566.986 409.02 568.215 410.587C571.601 414.902 573.339 418.173 573.339 421.028C573.339 426.297 568.897 442.628 563.464 455.931L563.224 456.516C555.853 474.374 547.541 485.936 538.584 487.564C532.392 488.69 524.559 488.081 509.438 485.902L504.88 485.242C494.152 483.698 489.667 483.184 485.111 483.114L484.257 483.107C478.593 483.102 475.887 484.13 475.637 485.879C475.05 489.992 477.72 494.001 486.843 504.078L487.876 505.216C489.959 507.508 491.204 508.912 492.479 510.43L492.864 510.891C497.43 516.399 499.937 520.77 500.477 525.084C501.575 533.871 493.326 546.768 476.541 559.845L475.492 560.655C453.195 577.677 418.206 594.04 369.922 608.374C369.737 608.429 369.546 608.457 369.353 608.457H278.295C277.301 608.457 276.458 607.727 276.316 606.744L276.114 605.256C276.044 604.724 275.971 604.142 275.893 603.513L275.688 601.802C275.372 599.096 275.056 596.101 274.755 592.848L274.592 591.049C272.373 565.924 272.062 539.469 274.883 514.676C278.381 483.941 286.393 459.292 299.932 442.932C300.473 442.278 301.368 442.037 302.164 442.33C315.243 447.148 326.103 450.601 334.88 452.915L336.119 453.238C338.833 453.935 341.162 454.473 343.119 454.873L344.071 455.062L344.032 453.996L343.976 452.308L343.905 449.82C343.522 435.259 343.719 419.45 344.88 404.51C346.216 387.33 348.703 373.449 352.604 363.975C366.692 329.762 382.775 310.197 402.12 310.09C407.641 310.06 413.861 312.698 426.004 319.36L432.461 322.918C439.215 326.612 442.394 328.171 445.806 329.401L446.563 329.667C451.351 331.292 454.031 331.025 455.166 329.04C456.202 327.226 456.671 324.467 457.129 318.176L457.346 315.053C458.005 305.647 458.521 301.314 459.938 295.784L460.208 294.753ZM631.242 324.666C640.837 299.705 644.095 278.723 638.636 272.845L638.267 272.471C625.425 260.197 546.971 253.806 504.503 262.115C480.714 266.769 468.792 278.21 464.071 295.79C462.593 301.298 462.058 305.308 461.412 314.267L461.181 317.591C460.653 325.215 460.148 328.383 458.639 331.024C456.313 335.094 451.849 335.608 445.615 333.567L444.902 333.325C440.832 331.897 437.425 330.214 429.263 325.727L425.885 323.862L423.045 322.301C412.285 316.446 406.553 314.066 402.142 314.09C385.024 314.184 369.812 332.691 356.302 365.498C352.728 374.18 350.346 387.079 349.01 403.064L348.868 404.82C347.669 420.244 347.509 436.646 347.956 451.593C347.974 452.191 347.992 452.765 348.011 453.313L348.106 455.843L348.173 457.348C348.237 458.591 347.163 459.59 345.928 459.435C345.6 459.394 345.052 459.31 344.275 459.17L343.234 458.975C341.322 458.604 339.041 458.096 336.379 457.43L335.123 457.112C326.416 454.873 315.637 451.5 302.652 446.769L302.126 446.576L301.777 447.022C289.703 462.506 282.331 485.545 278.97 514.162L278.858 515.128C276.071 539.615 276.38 565.817 278.577 590.697C278.949 594.912 279.348 598.722 279.746 602.059L279.863 603.023L280.043 604.456H369.061L371.611 603.693C417.525 589.836 450.94 574.164 472.405 557.976L473.065 557.475C489.542 544.896 497.409 532.796 496.507 525.58C496.075 522.122 493.766 518.18 489.416 513.002C488.367 511.754 487.33 510.574 485.782 508.862L483.337 506.168C478.869 501.238 477.261 499.328 475.394 496.613L475.128 496.222C472.429 492.192 471.197 488.674 471.677 485.313C472.334 480.715 476.904 479.041 484.674 479.109L485.162 479.114C489.545 479.18 493.738 479.623 502.804 480.905L511.991 482.225C524.915 484.042 532.064 484.565 537.346 483.717L537.868 483.628C544.87 482.355 552.497 471.831 559.293 455.55L559.761 454.419C565.014 441.557 569.339 425.654 569.339 421.028C569.339 419.358 567.925 416.697 565.068 413.056C564.064 411.776 562.899 410.39 561.464 408.758L560.336 407.486C560.125 407.25 559.912 407.012 559.69 406.766L554.43 400.979C553.127 399.54 552.039 398.32 551.035 397.167L550.15 396.143C546.042 391.351 543.205 387.445 541.404 383.843C539.809 380.652 540.31 377.764 542.805 375.746C544.753 374.172 547.843 373.173 552.114 372.557C558.682 371.61 566.912 371.567 581.587 372.083L587.353 372.292C593.839 372.527 597.311 372.63 600.554 372.661L602.382 372.669L602.488 372.622C609.612 369.172 621.572 349.348 630.669 326.142L631.242 324.666Z" fill="#070709"/><path id="Stroke 3 Copy" fill-rule="evenodd" clip-rule="evenodd" d="M460.208 294.753C465.319 275.719 478.426 263.141 503.735 258.189C547.895 249.549 628.688 256.252 641.568 270.123C648.497 277.586 645.253 299.105 635.296 325.264L634.679 326.871C624.934 351.967 612.139 373.087 603.539 376.528C603.303 376.622 603.051 376.671 602.796 376.671C599.631 376.671 596.86 376.617 592.079 376.46L580.742 376.056C567.224 375.591 559.362 375.627 553.305 376.43L552.685 376.516C545.604 377.537 543.553 379.196 544.982 382.054C546.605 385.3 549.274 388.975 553.187 393.54C554.51 395.083 555.927 396.677 557.789 398.729L561.963 403.314L563.717 405.267C565.547 407.325 566.986 409.02 568.215 410.587C571.601 414.902 573.339 418.173 573.339 421.028C573.339 426.297 568.897 442.628 563.464 455.931L563.224 456.516C555.853 474.374 547.541 485.936 538.584 487.564C532.392 488.69 524.559 488.081 509.438 485.902L504.88 485.242C494.152 483.698 489.667 483.184 485.111 483.114L484.257 483.107C478.593 483.102 475.887 484.13 475.637 485.879C475.05 489.992 477.72 494.001 486.843 504.078L487.876 505.216C489.959 507.508 491.204 508.912 492.479 510.43L492.864 510.891C497.43 516.399 499.937 520.77 500.477 525.084C501.575 533.871 493.326 546.768 476.541 559.845L475.492 560.655C453.195 577.677 418.206 594.04 369.922 608.374C369.737 608.429 369.546 608.457 369.353 608.457H278.295C277.301 608.457 276.458 607.727 276.316 606.744L276.114 605.256C276.044 604.724 275.971 604.142 275.893 603.513L275.688 601.802C275.372 599.096 275.056 596.101 274.755 592.848L274.592 591.049C272.373 565.924 272.062 539.469 274.883 514.676C278.381 483.941 286.393 459.292 299.932 442.932C300.473 442.278 301.368 442.037 302.164 442.33C315.243 447.148 326.103 450.601 334.88 452.915L336.119 453.238C338.833 453.935 341.162 454.473 343.119 454.873L344.071 455.062L344.032 453.996L343.976 452.308L343.905 449.82C343.522 435.259 343.719 419.45 344.88 404.51C346.216 387.33 348.703 373.449 352.604 363.975C366.692 329.762 382.775 310.197 402.12 310.09C407.641 310.06 413.861 312.698 426.004 319.36L432.461 322.918C439.215 326.612 442.394 328.171 445.806 329.401L446.563 329.667C451.351 331.292 454.031 331.025 455.166 329.04C456.202 327.226 456.671 324.467 457.129 318.176L457.346 315.053C458.005 305.647 458.521 301.314 459.938 295.784L460.208 294.753ZM631.242 324.666C640.837 299.705 644.095 278.723 638.636 272.845L638.267 272.471C625.425 260.197 546.971 253.806 504.503 262.115C480.714 266.769 468.792 278.21 464.071 295.79C462.593 301.298 462.058 305.308 461.412 314.267L461.181 317.591C460.653 325.215 460.148 328.383 458.639 331.024C456.313 335.094 451.849 335.608 445.615 333.567L444.902 333.325C440.832 331.897 437.425 330.214 429.263 325.727L425.885 323.862L423.045 322.301C412.285 316.446 406.553 314.066 402.142 314.09C385.024 314.184 369.812 332.691 356.302 365.498C352.728 374.18 350.346 387.079 349.01 403.064L348.868 404.82C347.669 420.244 347.509 436.646 347.956 451.593C347.974 452.191 347.992 452.765 348.011 453.313L348.106 455.843L348.173 457.348C348.237 458.591 347.163 459.59 345.928 459.435C345.6 459.394 345.052 459.31 344.275 459.17L343.234 458.975C341.322 458.604 339.041 458.096 336.379 457.43L335.123 457.112C326.416 454.873 315.637 451.5 302.652 446.769L302.126 446.576L301.777 447.022C289.703 462.506 282.331 485.545 278.97 514.162L278.858 515.128C276.071 539.615 276.38 565.817 278.577 590.697C278.949 594.912 279.348 598.722 279.746 602.059L279.863 603.023L280.043 604.456H369.061L371.611 603.693C417.525 589.836 450.94 574.164 472.405 557.976L473.065 557.475C489.542 544.896 497.409 532.796 496.507 525.58C496.075 522.122 493.766 518.18 489.416 513.002C488.367 511.754 487.33 510.574 485.782 508.862L483.337 506.168C478.869 501.238 477.261 499.328 475.394 496.613L475.128 496.222C472.429 492.192 471.197 488.674 471.677 485.313C472.334 480.715 476.904 479.041 484.674 479.109L485.162 479.114C489.545 479.18 493.738 479.623 502.804 480.905L511.991 482.225C524.915 484.042 532.064 484.565 537.346 483.717L537.868 483.628C544.87 482.355 552.497 471.831 559.293 455.55L559.761 454.419C565.014 441.557 569.339 425.654 569.339 421.028C569.339 419.358 567.925 416.697 565.068 413.056C564.064 411.776 562.899 410.39 561.464 408.758L560.336 407.486C560.125 407.25 559.912 407.012 559.69 406.766L554.43 400.979C553.127 399.54 552.039 398.32 551.035 397.167L550.15 396.143C546.042 391.351 543.205 387.445 541.404 383.843C539.809 380.652 540.31 377.764 542.805 375.746C544.753 374.172 547.843 373.173 552.114 372.557C558.682 371.61 566.912 371.567 581.587 372.083L587.353 372.292C593.839 372.527 597.311 372.63 600.554 372.661L602.382 372.669L602.488 372.622C609.612 369.172 621.572 349.348 630.669 326.142L631.242 324.666Z" fill="#070709"/></g><g id="Leaf 1"><path id="Fill 5" fill-rule="evenodd" clip-rule="evenodd" d="M541.266 0.641154C560.183 2.80315 578.101 145.023 514.526 161.542C490.999 167.655 452.261 179.242 473.333 202.656C484.066 214.58 527.178 227.957 537.972 251.943C546.194 270.211 525.226 325.646 493.702 340.076C457.608 356.596 423.488 349.411 420.461 371.6C417.436 393.789 469.92 407.637 473.162 437.905C475.443 459.179 440.029 537.15 323.822 602.866C255.236 602.866 197.76 601.857 197.76 601.857C197.76 601.857 142.445 514.298 128.325 411.42C114.204 308.542 135.99 272.546 174.362 267.713C194.812 265.137 234.262 294.672 254.041 288.894C270.528 284.077 249.396 228.611 249.396 189.275C249.396 149.94 259.665 114.686 276.231 106.335C289.571 99.6112 329.221 129.157 342.333 135.208C355.446 141.26 381.21 147.528 386.143 134.144C392.204 117.694 370.468 74.6892 386.683 50.3672C406.955 19.9572 498.058 -4.29685 541.266 0.641154" fill="#9584ba"/><path id="Stroke 10" d="M513.522 42.7719C514.318 43.5375 514.343 44.8036 513.577 45.5997L512.878 46.3364C512.368 46.8771 511.776 47.5095 511.106 48.2326L509.047 50.4699C507.367 52.3092 505.517 54.3616 503.509 56.6229L502.958 57.2448C494.487 66.807 485.047 77.9827 474.878 90.6709C445.817 126.931 416.755 168.03 389.631 213.156C355.646 269.697 327.17 328.558 306.012 388.981C281.082 460.176 267.075 531.426 265.793 601.978C265.773 603.082 264.862 603.961 263.757 603.941C262.653 603.921 261.774 603.009 261.794 601.905C263.084 530.904 277.172 459.237 302.237 387.659C323.491 326.962 352.084 267.858 386.202 211.096C413.424 165.806 442.589 124.563 471.756 88.1694L473.662 85.7983C483.149 74.0317 491.983 63.6021 499.963 54.5925L501.605 52.7458C503.925 50.1459 506.021 47.8391 507.877 45.8323L509.257 44.3479L510.694 42.827C511.46 42.0309 512.726 42.0062 513.522 42.7719Z" fill="#070709"/></g><g id="pot"><path id="pot_2" fill-rule="evenodd" clip-rule="evenodd" d="M374.253 853.978C316.767 853.982 259.269 853.974 201.775 853.978C147.89 762.027 131.603 693.859 170.498 601.888H405.531C444.422 693.859 428.145 762.007 374.253 853.978" fill="#add7dc"/><path id="pot_3" fill-rule="evenodd" clip-rule="evenodd" d="M407.372 601.109C407.059 600.369 406.334 599.888 405.53 599.888H170.497L170.338 599.895C169.599 599.953 168.947 600.418 168.655 601.109C149.323 646.822 143.281 687.273 149.365 728.235C155.024 766.34 171.067 805.535 200.049 854.991C200.408 855.603 201.064 855.979 201.774 855.979H374.252L374.251 853.978L375.978 854.99L376.843 853.51C405.282 804.742 421.061 765.949 426.663 728.227C432.745 687.27 426.703 646.824 407.372 601.109ZM171.826 603.887H404.2L404.816 605.365C422.976 649.32 428.556 688.246 422.706 727.64L422.536 728.765C416.875 765.557 401.306 803.62 373.385 851.499L373.103 851.979L202.92 851.978L202.641 851.5C174.439 803.142 158.838 764.79 153.321 727.647L153.146 726.441C147.528 687.052 153.353 648.074 171.771 604.017L171.826 603.887Z" fill="#15131b"/><path id="Path 4" d="M303 626.979C304.105 626.979 305 627.875 305 628.979C305 630.034 304.184 630.897 303.149 630.974L303 630.979H184C182.895 630.979 182 630.084 182 628.979C182 627.925 182.816 627.061 183.851 626.985L184 626.979H303Z" fill="#15131b"/></g></g></g></g><path id="Path 6 (Stroke)" fill-rule="evenodd" clip-rule="evenodd" d="M2266 1516.5H57V1512.5H2266V1516.5Z" fill="#15131b"/><g id="Seat" transform="matrix(-1 0 0 1 1226 913) scale(1 1)"><g id="Seat/Bench"><g id="Chair"><path id="Fill 1" fill-rule="evenodd" clip-rule="evenodd" d="M173.653 399.414L108.762 632H136.543L231.465 399.414H173.653Z" fill="#9584ba"/><path id="Fill 2" fill-rule="evenodd" clip-rule="evenodd" d="M440.148 399.414L545.266 632.414H563.032L499.369 399.414H440.148Z" fill="#9584ba"/><path id="Path" fill-rule="evenodd" clip-rule="evenodd" d="M501.255 402.388H167.24C166.397 402.388 165.644 401.859 165.358 401.066C164.485 398.64 77.5138 157.125 34.8978 37.8012C30.3708 25.1252 34.1008 14.2822 44.3998 10.1762C63.0888 2.7292 105.054 18.8112 138.099 93.6882L220.811 307.133H501.255C502.359 307.133 503.255 308.029 503.255 309.133V400.388C503.255 401.492 502.359 402.388 501.255 402.388" fill="#15131b"/><path id="Path_2" fill-rule="evenodd" clip-rule="evenodd" d="M168.647 398.388H499.256V311.133H219.442C218.616 311.133 217.876 310.625 217.577 309.856L134.405 95.2192C104.229 26.8452 64.4705 6.4802 45.8825 13.8922C37.6355 17.1802 34.8705 25.8262 38.6665 36.4552C79.6395 151.18 161.617 378.865 168.647 398.388" fill="#ffffff"/></g></g></g><g id="Plant" transform="matrix(-1 0 0 1 645 663.5) scale(1 1)"><g id="Plant/Plant 5"><g id="Leaf"><path id="Fill 1" fill-rule="evenodd" clip-rule="evenodd" d="M142.073 854C142.073 854 38.7938 792.106 59.8255 680.113C72.3796 613.26 114.963 616.538 139.609 565.925C155.338 533.623 131.439 446.932 180.495 389.904C226.323 336.629 301.255 341.458 325.391 329.885C357.739 314.375 370.058 281.791 379.304 255.03C413.783 155.257 493.443 157.951 506.41 207.589C522.043 267.434 507.075 303.502 433.524 362.151C378.258 406.22 459.174 455.663 411.041 535.903C384.145 580.739 311.823 604.043 347.15 662.018C395.526 741.406 386.44 819.449 361.777 854H142.073Z" fill="#9584ba"/><path id="Fill 10" fill-rule="evenodd" clip-rule="evenodd" d="M443.406 258.575C442.624 257.801 441.361 257.808 440.586 258.595C440.327 258.858 414.244 285.467 380.282 331.474C348.951 373.923 304.281 442.077 269.41 525.699C238.434 599.984 204.117 704.414 213.608 854H217.604C208.11 705.103 242.264 601.165 273.091 527.238C339.511 367.957 442.394 262.447 443.426 261.399C444.199 260.615 444.19 259.349 443.406 258.575" fill="#ffffff"/><path id="Fill 4" fill-rule="evenodd" clip-rule="evenodd" d="M511.73 488C505.488 488 499.131 493.164 499.131 499.42C499.131 500.461 499.283 501.463 499.546 502.421C446.698 528.402 399.565 562.051 359.321 602.561C325.081 637.028 295.722 676.507 272.062 719.896C251.011 758.501 238.459 793.126 231.637 815.376C225.256 836.184 222.553 850.375 221.91 854H225.965C226.77 849.598 229.474 836.045 235.451 816.549C242.22 794.479 254.672 760.126 275.563 721.816C299.043 678.756 328.175 639.583 362.149 605.384C402.073 565.197 448.833 531.812 501.268 506.029C503.32 508.883 506.656 510.748 510.433 510.748C516.675 510.748 521.91 506.764 521.91 500.508C521.91 494.253 517.971 488 511.73 488" fill="#15131b"/><path id="Fill 7" fill-rule="evenodd" clip-rule="evenodd" d="M578.336 616.953C572.079 616.953 565.708 622.117 565.708 628.374V628.377C546.338 631.849 513.648 639.101 454.234 660.976C375.152 690.094 320.491 740.93 288.562 778.445C253.959 819.101 237.815 853.387 237.656 853.728C237.615 853.817 237.59 853.908 237.562 854H241.975C245.354 847.205 261.341 816.578 291.695 780.933C323.306 743.818 377.401 693.529 455.617 664.73C514.728 642.967 547.197 635.762 566.427 632.312C568.028 636.624 572.167 639.702 577.036 639.702C583.293 639.702 588.54 635.719 588.54 629.462C588.54 623.205 584.593 616.953 578.336 616.953" fill="#15131b"/></g></g></g><g id="Object" transform="translate(1298.5 -87) scale(1 1)"><g id="Object/Cloud 2"><path id="Fill 4" fill-rule="evenodd" clip-rule="evenodd" d="M112.296 382.126C112.296 382.126 143.701 359.536 173.363 297.936C203.028 236.332 236.867 240.143 248.348 243.695C259.825 247.247 277.03 288.085 291.541 324.88C306.052 361.677 324.366 347.119 334.915 314.624C345.461 282.126 368.638 302.862 371.824 315.685C375.01 328.507 380.515 352.161 402.336 344.61C424.155 337.054 431.648 342.331 433.917 354.131C436.183 365.932 449.442 372.5 496.913 376.089C544.387 379.68 564.711 399.285 531.303 405.225C497.898 411.169 4.8072 408.307 112.296 382.126" fill="#ffffff"/><path id="Fill 4 Copy" fill-rule="evenodd" clip-rule="evenodd" d="M248.791 242.262C239.576 239.411 228.674 239.631 217.042 245.021C200.757 252.568 185.472 269.329 172.01 297.285L171.088 299.188C169.853 301.714 168.604 304.2 167.34 306.644C155.065 330.383 141.923 349.414 128.792 364.176C124.205 369.332 119.952 373.584 116.14 376.987C114.812 378.173 113.635 379.168 112.623 379.977L112.418 380.141C112.152 380.351 111.916 380.534 111.711 380.69L111.643 380.741L111.365 380.81C104.915 382.407 100.54 383.952 98.1126 385.501C95.0723 387.44 94.5756 390.035 97.1385 392.057C100.514 394.72 110.242 396.94 126.212 398.941L127.538 399.105C157.082 402.707 206.555 405.447 268.92 407.222L275.473 407.403C382.999 410.296 514.076 409.814 531.565 406.702C539.945 405.212 545.471 402.802 547.898 399.572C550.462 396.16 549.425 392.21 545.435 388.656C537.723 381.785 519.567 376.298 497.025 374.593L495.71 374.492C452.62 371.144 437.611 365.422 435.388 353.849L435.305 353.427C432.47 339.631 422.546 336.023 401.844 343.192L401.458 343.323C388.789 347.53 381.38 341.172 376.407 326.552C375.59 324.148 375.059 322.335 374.23 319.103L373.279 315.323C371.442 307.929 364.18 299.484 356.64 296.749C346.974 293.243 338.468 298.81 333.487 314.161L333.292 314.756C328.008 330.774 321.04 341.574 314.153 344.345C306.907 347.259 299.528 341.047 292.935 324.329L290.91 319.213C282.685 298.528 276.255 283.49 270.15 271.156L269.558 269.966C261.304 253.481 254.553 244.045 248.791 242.262ZM218.304 247.743C229.211 242.688 239.357 242.484 247.904 245.128C252.544 246.564 259.047 255.677 266.898 271.355L267.755 273.081C273.632 285.018 279.852 299.559 287.73 319.337L290.145 325.43C297.267 343.49 306.012 350.853 315.272 347.128C323.31 343.895 330.782 332.209 336.34 315.087L336.488 314.638C340.992 301.116 347.812 296.738 355.617 299.569C362.192 301.954 368.765 309.598 370.367 316.047C371.847 322.001 372.44 324.204 373.567 327.518L373.782 328.14C376.161 334.935 379.109 340.05 383.097 343.417C388.246 347.762 394.8 348.805 402.825 346.027L403.973 345.637C422.502 339.446 430.165 342.567 432.442 354.415L432.525 354.822C435.391 368.179 451.799 374.183 496.799 377.584L497.513 377.64C519.126 379.36 536.402 384.626 543.44 390.896C549.363 396.173 545.993 400.921 531.915 403.588L531.039 403.749C513.494 406.87 377.397 407.308 269.006 404.223L267.141 404.169C206.982 402.431 159.007 399.789 129.691 396.341L127.901 396.127C111.814 394.166 101.834 391.939 98.9963 389.701C98.2999 389.152 98.2705 388.984 99.4152 388.231L99.7261 388.03L99.9153 387.912C101.99 386.654 105.876 385.285 111.562 383.853L112.649 383.583L112.294 382.125L113.17 383.344L113.524 383.08C113.69 382.954 113.874 382.812 114.074 382.655L114.855 382.032C115.824 381.245 116.921 380.312 118.138 379.225L118.649 378.766C122.412 375.368 126.573 371.185 131.033 366.17C144.329 351.223 157.614 331.985 170.005 308.022C171.598 304.941 173.168 301.796 174.713 298.586L175.109 297.769C188.191 270.89 202.863 254.898 218.304 247.743Z" fill="#15131b"/></g></g><g id="Object" transform="translate(117 -142) scale(1 1)"><g id="Object/Cloud 1"><path id="Fill 1" fill-rule="evenodd" clip-rule="evenodd" d="M140.472 385.488C140.472 385.488 169.426 317.231 190.189 317.241C210.952 317.249 220.154 335.997 230.74 332.769C241.325 329.544 262.613 238.741 294.847 242.065C327.081 245.392 322.282 321.658 354.354 327.57C386.426 333.482 405.273 281.461 441.061 290.201C476.85 298.941 484.416 364.305 493.781 380.468C503.146 396.63 518.007 407.947 498.535 408.021C479.064 408.091 96.2679 407.365 140.472 385.488" fill="#ffffff"/><path id="Fill 1 Copy" fill-rule="evenodd" clip-rule="evenodd" d="M415.732 292.1C409.678 295.136 404.785 298.725 395.942 306.177L391.27 310.135C390.999 310.364 390.741 310.581 390.487 310.795L389.435 311.674C382.707 317.274 378.073 320.585 373.188 323.014C366.868 326.156 360.867 327.246 354.626 326.095C347.809 324.839 342.377 320.106 337.605 311.865L337.434 311.568C334.034 305.635 331.589 299.515 327.329 287.043L325.013 280.224C320.786 267.879 318.333 261.784 314.906 255.883L314.554 255.283C309.294 246.415 303.05 241.404 295.001 240.573C286.591 239.706 278.616 244.59 270.827 254.332C264.852 261.805 259.168 271.812 252.979 285.044L252.169 286.788C250.071 291.336 245.269 302.42 242.026 309.907C240.725 312.911 239.674 315.336 239.15 316.527L238.474 318.027C234.601 326.495 231.917 330.842 230.302 331.334C229.391 331.612 228.476 331.699 227.522 331.607C225.717 331.434 223.757 330.631 221.25 329.104C219.94 328.306 215.318 325.13 213.969 324.197L213.051 323.575C205.084 318.308 198.51 315.744 190.19 315.741C185.359 315.739 180.161 318.884 174.576 324.69C168.732 330.764 162.564 339.647 156.243 350.616C151.919 358.118 147.779 366.15 143.965 374.181C142.631 376.992 141.432 379.602 140.387 381.945L140.036 382.735L139.307 384.4L139.11 384.507C133.114 387.797 134.576 391.699 141.889 394.162C147.876 396.178 158.446 397.971 173.322 399.575L175.709 399.827C202.759 402.622 242.633 404.785 292.482 406.386L300.607 406.639C340.169 407.836 383.711 408.637 428.141 409.106L438.041 409.204C460.391 409.412 481.341 409.519 493.021 409.527L498.93 409.517C507.403 409.412 510.838 406.883 509.198 401.718C508.656 400.015 507.581 398.086 505.761 395.405L505.246 394.655C504.958 394.238 504.093 393.029 503.085 391.62C501.615 389.566 499.841 387.086 499.103 386.015L498.645 385.345C497.291 383.354 496.126 381.522 495.079 379.716C494.566 378.829 494.038 377.749 493.491 376.467C492.187 373.415 491.048 370.08 488.993 363.392L487.119 357.224C484.307 347.947 482.819 343.251 480.906 337.883L479.984 335.335C470.247 308.854 458.546 292.926 441.417 288.743C432.541 286.576 424.221 287.844 415.732 292.1ZM255.313 287.138C269.157 257.352 281.424 242.189 294.693 243.557C301.657 244.276 307.154 248.687 311.974 256.814C315.453 262.68 317.879 268.65 322.187 281.231L324.925 289.283C329.055 301.303 331.51 307.325 335.009 313.368L335.292 313.852C340.402 322.491 346.413 327.632 354.082 329.045C361.008 330.322 367.655 329.116 374.524 325.7C379.533 323.21 384.205 319.899 390.814 314.429L392.416 313.092L398.341 308.079C406.389 301.316 411.035 297.896 416.426 295.113L417.077 294.782C424.962 290.828 432.565 289.67 440.706 291.658C456.73 295.571 467.978 311.068 477.459 337.165L477.586 337.516C479.437 342.629 480.794 346.784 483.082 354.262L485.12 360.975C487.767 369.708 489.071 373.686 490.556 377.23L490.953 378.156C491.469 379.326 491.976 380.343 492.483 381.22C493.689 383.301 495.039 385.403 496.632 387.716C497.392 388.819 499.201 391.349 500.678 393.413C501.472 394.521 502.169 395.496 502.556 396.043L503.256 397.056C504.934 399.527 505.905 401.261 506.338 402.626C507.201 405.342 505.574 406.494 498.53 406.521L495.634 406.527C484.014 406.536 459.375 406.416 433.584 406.161L419.68 406.012C376.337 405.512 334.033 404.69 295.673 403.485L291.044 403.338C242.488 401.76 203.523 399.645 176.857 396.929L174.419 396.675C159.341 395.072 148.669 393.28 142.847 391.319L142.546 391.216C139.986 390.323 138.596 389.438 138.426 388.897L138.42 388.866C138.396 388.581 139.092 387.845 141.138 386.833L140.472 385.488L141.853 386.074L141.88 386.011L142.317 385.001C142.46 384.674 142.614 384.323 142.78 383.948L143.766 381.742C144.424 380.287 145.136 378.74 145.897 377.117L146.675 375.468C150.457 367.504 154.562 359.54 158.842 352.114C165.052 341.338 171.095 332.634 176.738 326.769C181.81 321.497 186.367 318.739 190.188 318.741C197.816 318.744 203.878 321.107 211.398 326.078L211.92 326.427C212.031 326.51 218.088 330.691 219.69 331.666L220.115 331.921C222.784 333.502 225.011 334.38 227.235 334.594C228.575 334.722 229.884 334.598 231.177 334.204C233.989 333.347 236.729 329.016 240.969 319.786L241.628 318.339C241.991 317.536 243.216 314.708 244.806 311.036C247.834 304.049 252.186 294.003 254.441 289.034L255.313 287.138Z" fill="#15131b"/></g></g></g></svg>