<svg viewBox="90 240 2190 1319.9999999999995" fill="none" xmlns="http://www.w3.org/2000/svg" xmlns:xlink="http://www.w3.org/1999/xlink" overflow="visible" width="2190px" height="1319.9999999999995px"><g id="Master/Backgrounds/Living Room"><path id="window" fill-rule="evenodd" clip-rule="evenodd" d="M942.08 509.506H1257.96V426.45H942.08V509.506ZM1257.96 1243.3H942.08V542.506H1257.96V1243.3ZM1601.92 1243.3H1286.04V542.506H1601.92V1243.3ZM1601.92 509.506H1286.04V426.45H1601.92V509.506Z" fill="#89c5cc"/><g id="sofa"><path id="Fill 6" fill-rule="evenodd" clip-rule="evenodd" d="M699.174 1368.93L671.331 1494.58C668.151 1508.93 675.726 1523.53 688.218 1527.12C693.693 1528.7 699.47 1527.92 704.483 1524.94C710.385 1521.43 714.71 1515.18 716.351 1507.78L744.246 1381.89L699.174 1368.93ZM693.855 1531.92C691.6 1531.92 689.337 1531.61 687.112 1530.97C672.627 1526.8 663.796 1510.09 667.427 1493.71L695.73 1365.99C695.849 1365.45 696.186 1364.98 696.659 1364.7C697.134 1364.42 697.703 1364.34 698.235 1364.5L747.158 1378.57C748.174 1378.86 748.787 1379.89 748.559 1380.92L720.255 1508.64C718.378 1517.12 713.374 1524.31 706.527 1528.38C702.584 1530.73 698.237 1531.92 693.855 1531.92V1531.92Z" fill="#2c2c2c"/><path id="Fill 8" fill-rule="evenodd" clip-rule="evenodd" d="M811.586 1368.93L783.743 1494.58C780.564 1508.93 788.139 1523.53 800.631 1527.12C806.108 1528.7 811.883 1527.92 816.897 1524.94C822.798 1521.43 827.123 1515.18 828.762 1507.78L856.658 1381.89L811.586 1368.93ZM806.268 1531.92C804.013 1531.92 801.75 1531.61 799.525 1530.97C785.041 1526.8 776.209 1510.09 779.838 1493.71L808.142 1365.99C808.261 1365.45 808.598 1364.98 809.071 1364.7C809.546 1364.42 810.115 1364.34 810.647 1364.5L859.57 1378.57C860.586 1378.86 861.199 1379.89 860.971 1380.92L832.667 1508.64C830.79 1517.12 825.787 1524.31 818.94 1528.38C814.997 1530.73 810.65 1531.92 806.268 1531.92V1531.92Z" fill="#2c2c2c"/><path id="Fill 10" fill-rule="evenodd" clip-rule="evenodd" d="M1580.63 1381.89L1608.52 1507.78C1610.16 1515.18 1614.49 1521.43 1620.39 1524.94C1625.4 1527.92 1631.18 1528.7 1636.65 1527.12C1649.15 1523.53 1656.72 1508.93 1653.54 1494.58L1625.7 1368.93L1580.63 1381.89ZM1631.02 1531.92C1626.63 1531.92 1622.29 1530.73 1618.35 1528.38C1611.5 1524.31 1606.49 1517.12 1604.62 1508.64L1576.31 1380.92C1576.08 1379.89 1576.7 1378.86 1577.71 1378.57L1626.64 1364.5C1627.17 1364.34 1627.74 1364.42 1628.21 1364.7C1628.69 1364.98 1629.02 1365.45 1629.14 1365.99L1657.44 1493.71C1661.07 1510.09 1652.24 1526.8 1637.76 1530.97C1635.54 1531.61 1633.27 1531.92 1631.02 1531.92V1531.92Z" fill="#2c2c2c"/><path id="Fill 12" fill-rule="evenodd" clip-rule="evenodd" d="M1459.55 1381.89L1487.44 1507.78C1489.08 1515.18 1493.41 1521.43 1499.31 1524.94C1504.32 1527.92 1510.1 1528.7 1515.58 1527.12C1528.07 1523.53 1535.64 1508.93 1532.46 1494.58L1504.62 1368.93L1459.55 1381.89ZM1509.94 1531.92C1505.56 1531.92 1501.21 1530.73 1497.27 1528.38C1490.42 1524.31 1485.42 1517.12 1483.54 1508.64L1455.24 1380.92C1455.01 1379.89 1455.62 1378.86 1456.64 1378.57L1505.56 1364.5C1506.09 1364.34 1506.66 1364.42 1507.13 1364.7C1507.61 1364.98 1507.94 1365.45 1508.06 1365.99L1536.37 1493.71C1540 1510.09 1531.17 1526.8 1516.68 1530.97C1514.46 1531.61 1512.19 1531.92 1509.94 1531.92V1531.92Z" fill="#2c2c2c"/><path id="Fill 14" fill-rule="evenodd" clip-rule="evenodd" d="M1592.86 1390.28H644.614L605.35 931.405C602.979 905.502 620.899 882.965 643.866 882.965H1593.61C1616.58 882.965 1634.5 905.502 1632.13 931.405L1592.86 1390.28Z" fill="#878fd8"/><path id="Fill 16" fill-rule="evenodd" clip-rule="evenodd" d="M1633.25 1390.56H1479.6V1131.58H1601.19C1661.62 1131.58 1709.08 1183.36 1703.82 1243.56L1698.85 1330.44C1695.88 1364.46 1667.4 1390.56 1633.25 1390.56" fill="#878fd8"/><path id="Fill 38" fill-rule="evenodd" clip-rule="evenodd" d="M878.893 1355.35H664.893V1126.38H786.487C846.918 1126.38 894.371 1178.15 889.113 1238.36L878.893 1355.35Z" fill="#878fd8"/><path id="Fill 39" fill-rule="evenodd" clip-rule="evenodd" d="M878.895 1387.35C878.848 1387.35 878.801 1387.35 878.754 1387.35C877.653 1387.27 876.821 1386.32 876.898 1385.21L887.118 1238.22C889.578 1210.04 880.042 1181.96 860.958 1161.14C841.875 1140.32 814.731 1128.38 786.487 1128.38H664.893C663.789 1128.38 662.893 1127.48 662.893 1126.38C662.893 1125.27 663.789 1124.38 664.893 1124.38H786.487C815.85 1124.38 844.069 1136.79 863.908 1158.44C883.747 1180.08 893.66 1209.28 891.105 1238.53L880.888 1385.49C880.815 1386.55 879.936 1387.35 878.895 1387.35" fill="#89c5cc"/><path id="pillow" fill-rule="evenodd" clip-rule="evenodd" d="M1505.87 1239.87C1447.31 1225.47 1391.55 1207.04 1339.05 1183.92C1327.36 1178.78 1321.17 1165.85 1324.4 1153.5C1338.03 1101.39 1354.43 1052.38 1373.64 1006.49C1378.61 994.599 1391.59 988.167 1404.08 991.349C1464.34 1006.7 1520.6 1024.8 1571.06 1046.89C1583.05 1052.14 1589.3 1065.49 1585.62 1078.04C1572.39 1123.22 1556.08 1171.71 1536.52 1223.72C1531.87 1236.08 1518.7 1243.02 1505.87 1239.87" fill="#89c5cc"/><path id="Fill 41" fill-rule="evenodd" clip-rule="evenodd" d="M1561.76 1240.35H930.209C929.105 1240.35 928.209 1239.46 928.209 1238.35C928.209 1237.25 929.105 1236.35 930.209 1236.35H1561.76C1562.86 1236.35 1563.76 1237.25 1563.76 1238.35C1563.76 1239.46 1562.86 1240.35 1561.76 1240.35" fill="#89c5cc"/></g><g id="Object" transform="translate(144 123) scale(1 1)"><g id="Object/Chat"><g id="bubble"><path id="Stroke 1" fill-rule="evenodd" clip-rule="evenodd" d="M280.5 333.193C280.5 286.606 324.915 249.061 379.479 249.061C434.043 249.061 478.458 286.606 478.458 333.193C478.458 361.426 461.987 387.202 435.188 402.731L435.104 402.778L435.131 403.809C435.56 418.474 438.289 428.417 443.16 430.843L443.504 431.008C446.144 432.382 445.352 436.441 442.308 436.653C429.514 437.542 419.125 434.693 410.992 428.934C405.763 425.23 401.871 420.646 399.111 415.75L399.056 415.653L398.72 415.713C392.804 416.708 386.81 417.249 380.773 417.316L379.479 417.324C324.915 417.324 280.5 379.78 280.5 333.193ZM472.458 333.193C472.458 290.164 430.932 255.061 379.479 255.061C328.026 255.061 286.5 290.164 286.5 333.193C286.5 376.222 328.026 411.324 379.479 411.324C386.436 411.324 393.338 410.66 400.127 409.365C401.454 409.112 402.787 409.777 403.382 410.99C405.761 415.835 409.376 420.437 414.46 424.037C419.869 427.868 426.489 430.215 434.498 430.713L434.704 430.725L434.478 430.352C430.824 424.199 429.248 414.349 429.085 401.672L429.078 401.074C429.068 399.974 429.66 398.956 430.622 398.423C456.576 384.017 472.458 359.707 472.458 333.193Z" fill="#2c2c2c"/><path id="Fill 3" fill-rule="evenodd" clip-rule="evenodd" d="M349.684 335.305C349.684 340.983 345.082 345.585 339.405 345.585C333.727 345.585 329.125 340.983 329.125 335.305C329.125 329.628 333.727 325.026 339.405 325.026C345.082 325.026 349.684 329.628 349.684 335.305" fill="#2c2c2c"/><path id="Fill 5" fill-rule="evenodd" clip-rule="evenodd" d="M390.024 335.305C390.024 340.983 385.422 345.585 379.744 345.585C374.067 345.585 369.465 340.983 369.465 335.305C369.465 329.628 374.067 325.026 379.744 325.026C385.422 325.026 390.024 329.628 390.024 335.305" fill="#2c2c2c"/><path id="Fill 7" fill-rule="evenodd" clip-rule="evenodd" d="M430.36 335.305C430.36 340.983 425.758 345.585 420.08 345.585C414.403 345.585 409.801 340.983 409.801 335.305C409.801 329.628 414.403 325.026 420.08 325.026C425.758 325.026 430.36 329.628 430.36 335.305" fill="#2c2c2c"/><path id="Fill 9" fill-rule="evenodd" clip-rule="evenodd" d="M137 302.416C137 257.608 179.97 221.284 232.979 221.284C285.987 221.284 328.958 257.608 328.958 302.416C328.958 347.224 285.987 383.546 232.979 383.546C225.687 383.546 218.595 382.837 211.769 381.535C208.101 389.005 197.141 404.743 170.359 402.883C178.19 399.32 180.25 384.26 180.38 370.268C154.261 355.769 137 330.803 137 302.416" fill="#4a4b60"/><path id="Fill 11" fill-rule="evenodd" clip-rule="evenodd" d="M202.051 306.179C202.051 311.857 197.449 316.459 191.772 316.459C186.094 316.459 181.492 311.857 181.492 306.179C181.492 300.502 186.094 295.9 191.772 295.9C197.449 295.9 202.051 300.502 202.051 306.179" fill="#89c5cc"/><path id="Fill 13" fill-rule="evenodd" clip-rule="evenodd" d="M242.387 306.179C242.387 311.857 237.785 316.459 232.108 316.459C226.43 316.459 221.828 311.857 221.828 306.179C221.828 300.502 226.43 295.9 232.108 295.9C237.785 295.9 242.387 300.502 242.387 306.179" fill="#89c5cc"/><path id="Fill 15" fill-rule="evenodd" clip-rule="evenodd" d="M282.727 306.179C282.727 311.857 278.125 316.459 272.447 316.459C266.77 316.459 262.168 311.857 262.168 306.179C262.168 300.502 266.77 295.9 272.447 295.9C278.125 295.9 282.727 300.502 282.727 306.179" fill="#89c5cc"/><path id="Stroke 17" d="M460.89 215.695C461.473 214.144 463.203 213.359 464.754 213.942C466.25 214.504 467.033 216.132 466.564 217.639L466.507 217.806L456.688 243.937C456.105 245.488 454.375 246.273 452.824 245.69C451.329 245.128 450.546 243.5 451.014 241.993L451.071 241.827L460.89 215.695Z" fill="#2c2c2c"/><path id="Stroke 19" d="M492.359 238.905C493.64 237.854 495.531 238.041 496.581 239.322C497.592 240.553 497.458 242.349 496.307 243.419L496.164 243.544L475.106 260.816C473.825 261.867 471.934 261.68 470.884 260.399C469.873 259.167 470.007 257.372 471.158 256.302L471.301 256.177L492.359 238.905Z" fill="#2c2c2c"/><path id="Stroke 21" d="M508.282 274.056C509.922 273.822 511.442 274.962 511.676 276.602C511.902 278.183 510.85 279.653 509.304 279.966L509.13 279.996L484.932 283.45C483.292 283.684 481.772 282.544 481.538 280.904C481.313 279.323 482.364 277.853 483.91 277.54L484.084 277.51L508.282 274.056Z" fill="#2c2c2c"/></g></g></g><g id="table"><g id="table_2"><path id="leg" fill-rule="evenodd" clip-rule="evenodd" d="M1868.59 1527.73H1835.2V1408.18H2022.46V1449.03H1870.59C1869.49 1449.03 1868.59 1449.93 1868.59 1451.03V1527.73ZM2024.46 1453.03H1872.59V1529.73C1872.59 1530.84 1871.7 1531.73 1870.59 1531.73H1833.2C1832.09 1531.73 1831.2 1530.84 1831.2 1529.73V1406.18C1831.2 1405.07 1832.09 1404.18 1833.2 1404.18H2024.46H2024.56H2215.81C2216.92 1404.18 2217.81 1405.07 2217.81 1406.18V1529.73C2217.81 1530.84 2216.92 1531.73 2215.81 1531.73H2178.42C2177.31 1531.73 2176.42 1530.84 2176.42 1529.73V1453.03H2024.56H2024.46ZM2026.56 1449.03H2178.42C2179.52 1449.03 2180.42 1449.93 2180.42 1451.03V1527.73H2213.81V1408.18H2026.56V1449.03Z" fill="#2c2c2c"/><g id="Assets 69"><path id="Fill 44" fill-rule="evenodd" clip-rule="evenodd" d="M1777.47 1415.52H2021.28V1144.84H1777.47V1415.52Z" fill="#89c5cc"/><path id="Fill 45" fill-rule="evenodd" clip-rule="evenodd" d="M2007.09 1281.39C2007.09 1287.56 2002.09 1292.56 1995.92 1292.56C1989.75 1292.56 1984.75 1287.56 1984.75 1281.39C1984.75 1275.22 1989.75 1270.22 1995.92 1270.22C2002.09 1270.22 2007.09 1275.22 2007.09 1281.39" fill="#89c5cc"/></g><g id="door"><path id="Fill 46" fill-rule="evenodd" clip-rule="evenodd" d="M2028.16 1415.52H2271.97V1144.84H2028.16V1415.52Z" fill="#89c5cc"/><path id="Fill 47" fill-rule="evenodd" clip-rule="evenodd" d="M2042.35 1281.39C2042.35 1287.56 2047.35 1292.56 2053.52 1292.56C2059.68 1292.56 2064.69 1287.56 2064.69 1281.39C2064.69 1275.22 2059.68 1270.22 2053.52 1270.22C2047.35 1270.22 2042.35 1275.22 2042.35 1281.39" fill="#89c5cc"/></g></g></g><g id="Plant" transform="translate(-32.7148 673.194) scale(1 1)"><g id="Plant/Plant 1"><g id="plant"><g id="Leaf 3"><path id="Fill 1" fill-rule="evenodd" clip-rule="evenodd" d="M374.475 562.183C374.475 562.183 363.527 505.372 403.544 487.947C443.563 470.521 449.827 444.431 474.6 437.859C498.715 431.46 534.814 474.559 486.002 520.992C437.192 567.423 417.818 586.13 374.475 562.183" fill="#4a4b60"/><path id="Fill 13" fill-rule="evenodd" clip-rule="evenodd" d="M326.655 676.224C326.536 676.224 326.416 676.213 326.295 676.192C325.208 675.994 324.487 674.952 324.685 673.866C345.329 560.684 429.93 503.546 457.731 484.77C461.93 481.934 465.248 479.694 466.356 478.585C467.137 477.804 468.403 477.804 469.184 478.585C469.966 479.367 469.966 480.632 469.184 481.413C467.804 482.793 464.688 484.899 459.97 488.084C432.513 506.628 348.962 563.057 328.621 674.582C328.444 675.548 327.603 676.224 326.655 676.224" fill="#2c2c2c"/></g><g id="Leaf 2"><path id="Fill 4" fill-rule="evenodd" clip-rule="evenodd" d="M276.729 344.377C257.128 349.322 248.318 377.861 266.427 411.154C275.8 428.387 269.274 437.898 267.458 449.186C261.535 485.99 274.95 491.18 276.453 501.11C277.955 511.041 270.437 532.359 271.656 545.282C274.192 572.171 299.245 600.991 332.536 575.215C361.154 553.056 360.582 503.84 349.784 493.375C338.985 482.91 336.28 485.797 344.712 463.094C351.307 445.337 347.607 422.07 335.073 411.345C324.854 402.602 318.837 406.779 319.283 383.852C319.693 362.748 307.186 336.691 276.729 344.377" fill="#4a4b60"/><path id="Fill 11" fill-rule="evenodd" clip-rule="evenodd" d="M304.637 661.263C304.573 661.263 304.506 661.26 304.44 661.253C303.341 661.146 302.537 660.167 302.645 659.068C320.977 471.872 289.431 382.937 289.111 382.061C288.731 381.024 289.264 379.875 290.301 379.495C291.334 379.117 292.486 379.648 292.866 380.686C293.199 381.594 301.069 403.441 306.767 448.889C312.013 490.728 316.246 561.222 306.625 659.458C306.525 660.491 305.655 661.263 304.637 661.263" fill="#2c2c2c"/></g><g id="Leaf 1"><path id="Fill 7" fill-rule="evenodd" clip-rule="evenodd" d="M140.207 441C129.72 451.892 135.017 481.88 156.602 489.472C170.442 494.34 168.985 505.325 172.296 513.21C183.092 538.919 193.661 536.908 198.543 542.618C203.424 548.329 202.171 567.584 206.892 576.067C216.739 593.765 248.9 599.904 259.842 570.372C269.248 544.986 263.387 518.2 242.04 508.705C231.815 504.158 228.668 507.63 225.943 489.721C223.219 471.812 213.78 459.931 201.581 458.079C191.635 456.569 190.667 462.253 179.36 451.233C168.054 440.214 156.505 424.075 140.207 441" fill="#4a4b60"/><path id="Fill 9" fill-rule="evenodd" clip-rule="evenodd" d="M267.731 651.364C266.799 651.364 265.966 650.711 265.773 649.762C265.567 648.753 244.324 547.855 168.49 470.881C167.714 470.094 167.724 468.828 168.511 468.052C169.298 467.278 170.564 467.287 171.339 468.074C211.422 508.76 236.024 555.756 249.604 588.016C264.32 622.976 269.641 648.71 269.693 648.966C269.913 650.048 269.214 651.103 268.131 651.324C267.998 651.351 267.863 651.364 267.731 651.364" fill="#2c2c2c"/></g><g id="Pot"><path id="Fill 15" fill-rule="evenodd" clip-rule="evenodd" d="M415.761 636.727H188.652V674.855H205.12L230.429 849.638H373.984L399.293 674.855H415.761V636.727Z" fill="#89c5cc"/><path id="Fill 17" fill-rule="evenodd" clip-rule="evenodd" d="M190.652 672.855H413.761V638.727H190.652V672.855ZM372.253 847.638H232.161L207.43 676.855H396.983L372.253 847.638ZM415.761 634.727H188.652C187.548 634.727 186.652 635.622 186.652 636.727V674.855C186.652 675.959 187.548 676.855 188.652 676.855H203.389L228.45 849.925C228.592 850.909 229.435 851.638 230.429 851.638H373.984C374.978 851.638 375.821 850.909 375.964 849.925L401.024 676.855H415.761C416.866 676.855 417.761 675.959 417.761 674.855V636.727C417.761 635.622 416.866 634.727 415.761 634.727V634.727Z" fill="#2c2c2c"/></g></g></g></g><g id="Object" transform="translate(1755 0) scale(1 1)"><g id="Object/Cloud 1"><path id="Fill 1" fill-rule="evenodd" clip-rule="evenodd" d="M140.472 385.488C140.472 385.488 169.426 317.231 190.189 317.241C210.952 317.249 220.154 335.997 230.74 332.769C241.325 329.544 262.613 238.741 294.847 242.065C327.081 245.392 322.282 321.658 354.354 327.57C386.426 333.482 405.273 281.461 441.061 290.201C476.85 298.941 484.416 364.305 493.781 380.468C503.146 396.63 518.007 407.947 498.535 408.021C479.064 408.091 96.2679 407.365 140.472 385.488" fill="#89c5cc"/><path id="Fill 1 Copy" fill-rule="evenodd" clip-rule="evenodd" d="M415.732 292.1C409.678 295.136 404.785 298.725 395.942 306.177L391.27 310.135C390.999 310.364 390.741 310.581 390.487 310.795L389.435 311.674C382.707 317.274 378.073 320.585 373.188 323.014C366.868 326.156 360.867 327.246 354.626 326.095C347.809 324.839 342.377 320.106 337.605 311.865L337.434 311.568C334.034 305.635 331.589 299.515 327.329 287.043L325.013 280.224C320.786 267.879 318.333 261.784 314.906 255.883L314.554 255.283C309.294 246.415 303.05 241.404 295.001 240.573C286.591 239.706 278.616 244.59 270.827 254.332C264.852 261.805 259.168 271.812 252.979 285.044L252.169 286.788C250.071 291.336 245.269 302.42 242.026 309.907C240.725 312.911 239.674 315.336 239.15 316.527L238.474 318.027C234.601 326.495 231.917 330.842 230.302 331.334C229.391 331.612 228.476 331.699 227.522 331.607C225.717 331.434 223.757 330.631 221.25 329.104C219.94 328.306 215.318 325.13 213.969 324.197L213.051 323.575C205.084 318.308 198.51 315.744 190.19 315.741C185.359 315.739 180.161 318.884 174.576 324.69C168.732 330.764 162.564 339.647 156.243 350.616C151.919 358.118 147.779 366.15 143.965 374.181C142.631 376.992 141.432 379.602 140.387 381.945L140.036 382.735L139.307 384.4L139.11 384.507C133.114 387.797 134.576 391.699 141.889 394.162C147.876 396.178 158.446 397.971 173.322 399.575L175.709 399.827C202.759 402.622 242.633 404.785 292.482 406.386L300.607 406.639C340.169 407.836 383.711 408.637 428.141 409.106L438.041 409.204C460.391 409.412 481.341 409.519 493.021 409.527L498.93 409.517C507.403 409.412 510.838 406.883 509.198 401.718C508.656 400.015 507.581 398.086 505.761 395.405L505.246 394.655C504.958 394.238 504.093 393.029 503.085 391.62C501.615 389.566 499.841 387.086 499.103 386.015L498.645 385.345C497.291 383.354 496.126 381.522 495.079 379.716C494.566 378.829 494.038 377.749 493.491 376.467C492.187 373.415 491.048 370.08 488.993 363.392L487.119 357.224C484.307 347.947 482.819 343.251 480.906 337.883L479.984 335.335C470.247 308.854 458.546 292.926 441.417 288.743C432.541 286.576 424.221 287.844 415.732 292.1ZM255.313 287.138C269.157 257.352 281.424 242.189 294.693 243.557C301.657 244.276 307.154 248.687 311.974 256.814C315.453 262.68 317.879 268.65 322.187 281.231L324.925 289.283C329.055 301.303 331.51 307.325 335.009 313.368L335.292 313.852C340.402 322.491 346.413 327.632 354.082 329.045C361.008 330.322 367.655 329.116 374.524 325.7C379.533 323.21 384.205 319.899 390.814 314.429L392.416 313.092L398.341 308.079C406.389 301.316 411.035 297.896 416.426 295.113L417.077 294.782C424.962 290.828 432.565 289.67 440.706 291.658C456.73 295.571 467.978 311.068 477.459 337.165L477.586 337.516C479.437 342.629 480.794 346.784 483.082 354.262L485.12 360.975C487.767 369.708 489.071 373.686 490.556 377.23L490.953 378.156C491.469 379.326 491.976 380.343 492.483 381.22C493.689 383.301 495.039 385.403 496.632 387.716C497.392 388.819 499.201 391.349 500.678 393.413C501.472 394.521 502.169 395.496 502.556 396.043L503.256 397.056C504.934 399.527 505.905 401.261 506.338 402.626C507.201 405.342 505.574 406.494 498.53 406.521L495.634 406.527C484.014 406.536 459.375 406.416 433.584 406.161L419.68 406.012C376.337 405.512 334.033 404.69 295.673 403.485L291.044 403.338C242.488 401.76 203.523 399.645 176.857 396.929L174.419 396.675C159.341 395.072 148.669 393.28 142.847 391.319L142.546 391.216C139.986 390.323 138.596 389.438 138.426 388.897L138.42 388.866C138.396 388.581 139.092 387.845 141.138 386.833L140.472 385.488L141.853 386.074L141.88 386.011L142.317 385.001C142.46 384.674 142.614 384.323 142.78 383.948L143.766 381.742C144.424 380.287 145.136 378.74 145.897 377.117L146.675 375.468C150.457 367.504 154.562 359.54 158.842 352.114C165.052 341.338 171.095 332.634 176.738 326.769C181.81 321.497 186.367 318.739 190.188 318.741C197.816 318.744 203.878 321.107 211.398 326.078L211.92 326.427C212.031 326.51 218.088 330.691 219.69 331.666L220.115 331.921C222.784 333.502 225.011 334.38 227.235 334.594C228.575 334.722 229.884 334.598 231.177 334.204C233.989 333.347 236.729 329.016 240.969 319.786L241.628 318.339C241.991 317.536 243.216 314.708 244.806 311.036C247.834 304.049 252.186 294.003 254.441 289.034L255.313 287.138Z" fill="#2c2c2c"/></g></g><g id="Table Object" transform="translate(1618.08 310.965) scale(1 1)"><g id="Table Object/Laptop"><g id="Macbook"><path id="Fill 19" fill-rule="evenodd" clip-rule="evenodd" d="M341.827 837.229H129C122.925 837.229 118 831.185 118 823.729C118 816.273 122.925 810.229 129 810.229H341.827C347.902 810.229 352.827 816.273 352.827 823.729C352.827 831.185 347.902 837.229 341.827 837.229" fill="#2c2c2c"/><path id="Fill 23" fill-rule="evenodd" clip-rule="evenodd" d="M475.936 837.229H265.261C257.63 837.229 251.445 831.043 251.445 823.412V670.817C251.445 663.187 257.63 657 265.261 657H475.936C483.566 657 489.752 663.187 489.752 670.817V823.412C489.752 831.043 483.566 837.229 475.936 837.229" fill="#686c9a"/><path id="Fill 43" fill-rule="evenodd" clip-rule="evenodd" d="M396.507 748.591C396.507 760.519 387.398 768.051 375.051 768.051C362.704 768.051 352.695 758.381 352.695 746.453C352.695 734.525 365.938 714.338 375.747 729.166C382.56 739.463 396.507 736.663 396.507 748.591" fill="#89c5cc"/><path id="Fill 45" fill-rule="evenodd" clip-rule="evenodd" d="M367.992 726.041C367.311 726.041 366.787 726.199 366.47 726.294C360.469 728.1 354.82 739.181 354.82 746.453C354.82 757.189 363.894 765.924 375.049 765.924C386.61 765.924 394.378 758.958 394.378 748.591C394.378 743.468 391.539 741.919 386.097 739.408C381.964 737.499 377.278 735.337 373.971 730.339C371.604 726.76 369.443 726.041 367.992 726.041M375.049 770.177C361.55 770.177 350.566 759.535 350.566 746.453C350.566 737.478 357.114 724.667 365.244 722.222C367.876 721.429 372.975 721.124 377.518 727.992C380.158 731.982 384.084 733.794 387.88 735.546C393.166 737.985 398.632 740.508 398.632 748.591C398.632 761.301 388.933 770.177 375.049 770.177" fill="#2c2c2c"/></g></g></g></g></svg>